<?xml version="1.0" standalone="no"?>
<!DOCTYPE svg PUBLIC "-//W3C//DTD SVG 20010904//EN"
 "http://www.w3.org/TR/2001/REC-SVG-20010904/DTD/svg10.dtd">
<svg version="1.0" xmlns="http://www.w3.org/2000/svg"
 width="900.000000pt" height="900.000000pt" viewBox="0 0 900.000000 900.000000"
 preserveAspectRatio="xMidYMid meet">

<g transform="translate(0.000000,900.000000) scale(0.100000,-0.100000)"
fill="#000000" stroke="none">
<path d="M3290 7680 c0 -6 -26 -10 -59 -10 -33 0 -63 -4 -66 -10 -3 -5 -33
-10 -65 -10 -32 0 -62 -4 -65 -10 -3 -5 -21 -10 -40 -10 -19 0 -37 -4 -40 -10
-4 -6 -53 -10 -114 -10 -95 0 -110 -2 -126 -20 -10 -11 -23 -20 -30 -20 -7 0
-20 -9 -30 -20 -10 -11 -24 -20 -30 -20 -7 0 -18 -7 -25 -15 -7 -8 -21 -15
-31 -15 -12 0 -19 -7 -19 -20 0 -11 -4 -20 -10 -20 -15 0 -12 -70 4 -86 12
-11 51 -14 188 -14 l174 0 39 40 c32 33 46 40 77 40 21 0 38 5 38 10 0 6 18
10 39 10 22 0 43 5 46 10 3 6 33 10 66 10 33 0 59 4 59 10 0 6 57 10 150 10
143 0 150 -1 150 -20 0 -13 7 -20 18 -20 25 0 42 -19 42 -48 0 -26 21 -52 43
-52 22 0 47 -34 47 -63 0 -15 5 -27 10 -27 6 0 10 -13 10 -29 0 -17 5 -33 10
-36 6 -4 10 -63 10 -143 l0 -138 -50 -49 c-47 -47 -100 -132 -100 -162 0 -7
-4 -13 -10 -13 -5 0 -10 -8 -10 -18 0 -10 -9 -24 -20 -32 -11 -8 -20 -21 -20
-30 0 -9 -20 -36 -45 -60 -25 -24 -45 -49 -45 -55 0 -6 -36 -46 -81 -90 -44
-44 -89 -99 -100 -122 -11 -24 -31 -47 -47 -55 -16 -8 -37 -33 -50 -61 -13
-26 -29 -47 -36 -47 -14 0 -126 -111 -126 -126 0 -5 -25 -34 -55 -64 -40 -40
-55 -62 -55 -82 0 -18 -5 -28 -15 -28 -37 0 -105 -55 -105 -85 0 -11 -16 -36
-35 -55 -19 -19 -35 -41 -35 -50 0 -8 -9 -22 -20 -30 -11 -8 -20 -20 -20 -27
0 -7 -16 -30 -36 -51 -35 -38 -52 -64 -73 -107 -5 -11 -30 -40 -55 -65 -25
-24 -46 -50 -46 -56 0 -7 -21 -23 -47 -36 -26 -13 -53 -33 -59 -45 -6 -13 -18
-31 -27 -41 -10 -10 -17 -23 -17 -28 0 -5 -27 -36 -61 -69 -33 -33 -69 -78
-79 -100 -11 -23 -75 -96 -149 -170 -94 -93 -131 -136 -131 -153 0 -23 -73
-101 -96 -102 -15 0 -54 -43 -54 -59 0 -16 -89 -101 -105 -101 -16 0 -65 -53
-65 -71 0 -8 -9 -21 -20 -29 -11 -8 -20 -20 -20 -27 0 -7 -16 -30 -35 -50 -19
-20 -35 -42 -35 -49 0 -6 -17 -27 -39 -46 -21 -18 -40 -42 -42 -53 -4 -18 -29
-36 -96 -71 -20 -10 -33 -24 -33 -35 0 -11 -4 -19 -10 -19 -5 0 -10 -8 -10
-18 0 -10 -18 -36 -40 -57 -22 -22 -40 -49 -40 -60 0 -12 -9 -30 -20 -40 -11
-10 -20 -24 -20 -32 0 -7 -8 -16 -18 -20 -22 -8 -132 -114 -132 -128 0 -6 -18
-29 -41 -50 -22 -22 -49 -60 -60 -84 -12 -24 -47 -68 -80 -99 -32 -31 -59 -62
-59 -70 0 -8 -13 -27 -30 -42 -16 -15 -30 -35 -30 -44 0 -9 -4 -16 -10 -16 -5
0 -10 -6 -10 -12 0 -30 -93 -197 -130 -233 -28 -27 -40 -48 -40 -67 0 -15 -4
-28 -10 -28 -5 0 -10 -9 -10 -20 0 -11 -4 -20 -10 -20 -15 0 -13 -203 2 -218
15 -15 64 -16 73 -2 3 6 37 10 75 10 38 0 72 5 75 10 3 6 21 10 40 10 19 0 37
5 40 10 8 13 122 13 130 0 8 -13 72 -13 80 0 3 6 15 10 26 10 10 0 19 5 19 10
0 13 117 13 125 0 3 -5 37 -10 75 -10 38 0 72 5 75 10 3 5 15 10 25 10 11 0
35 9 55 20 20 11 51 20 70 20 18 0 37 4 40 10 3 6 17 10 30 10 13 0 26 4 30 9
12 20 70 41 112 41 23 0 43 5 43 10 0 6 9 10 20 10 11 0 20 4 20 9 0 6 19 11
42 13 35 2 45 8 56 31 9 17 21 27 36 27 12 0 37 15 56 35 28 29 41 35 76 35
25 0 47 -6 54 -15 17 -20 103 -20 120 0 7 8 25 15 41 15 16 0 29 5 29 10 0 6
9 10 20 10 11 0 20 5 20 10 0 6 13 10 29 10 17 0 33 4 36 10 3 5 16 10 29 10
13 0 31 9 41 20 14 16 31 20 76 20 32 0 61 5 64 10 3 6 28 10 54 10 46 0 104
20 116 41 4 5 19 9 36 9 16 0 29 5 29 10 0 6 13 10 29 10 17 0 33 5 36 10 3 5
15 10 25 10 11 0 35 9 55 20 20 11 47 20 60 20 14 0 25 5 25 10 0 6 9 10 20
10 11 0 20 5 20 10 0 6 22 10 49 10 28 0 53 5 56 10 3 6 33 10 66 10 33 0 59
4 59 10 0 6 20 10 45 10 45 0 45 0 45 -34 0 -19 -4 -38 -10 -41 -5 -3 -10 -19
-10 -36 0 -16 -4 -29 -10 -29 -5 0 -10 -8 -10 -19 0 -10 -25 -41 -55 -68 -31
-29 -55 -59 -55 -70 0 -28 -25 -75 -55 -103 -17 -16 -25 -34 -25 -56 0 -17 -7
-37 -15 -44 -8 -7 -15 -23 -15 -37 0 -27 -41 -73 -65 -73 -8 0 -15 -9 -15 -20
0 -11 -4 -20 -10 -20 -5 0 -10 -17 -10 -38 0 -26 -7 -45 -20 -57 -12 -11 -20
-31 -20 -49 0 -26 -13 -44 -65 -96 -36 -35 -65 -71 -65 -78 0 -8 -25 -37 -55
-65 -30 -27 -55 -58 -55 -68 0 -11 -4 -19 -10 -19 -5 0 -10 -13 -10 -29 0 -17
-5 -33 -10 -36 -6 -3 -10 -14 -10 -24 0 -22 -47 -116 -65 -131 -8 -7 -15 -23
-15 -36 0 -15 -16 -38 -45 -65 -30 -27 -45 -50 -45 -66 0 -25 -21 -53 -39 -53
-6 0 -38 -27 -71 -60 -59 -59 -60 -62 -60 -115 0 -29 -5 -57 -10 -60 -34 -21
21 -125 66 -125 13 0 26 -4 29 -10 3 -5 15 -10 26 -10 10 0 19 5 19 10 0 6 6
10 13 10 52 0 157 104 157 155 0 8 5 15 10 15 6 0 10 14 10 30 0 17 5 30 10
30 6 0 10 8 10 18 0 10 14 31 30 47 17 16 30 34 30 41 0 6 7 17 15 24 8 7 15
22 15 34 0 13 19 41 46 66 25 25 54 63 64 85 10 22 37 58 59 80 23 21 41 47
41 57 0 10 5 18 10 18 6 0 10 7 10 16 0 8 18 33 40 54 22 21 40 44 41 52 0 7
9 27 20 43 10 17 23 39 28 50 5 12 16 27 25 34 9 7 16 28 16 45 0 23 9 41 30
61 17 16 30 37 30 47 0 10 5 18 10 18 6 0 10 9 10 20 0 11 5 20 10 20 6 0 10
12 11 28 1 35 29 84 58 98 25 13 51 56 51 85 0 10 5 21 10 24 6 3 10 17 10 30
0 13 5 27 10 30 6 3 10 15 10 26 0 10 5 19 10 19 6 0 10 8 10 17 0 9 20 36 45
60 25 23 45 49 45 58 0 8 5 15 10 15 6 0 10 6 10 13 0 17 28 75 40 82 5 3 23
34 40 68 17 34 39 76 50 94 12 21 20 55 22 99 3 63 5 69 33 85 17 10 44 18 61
18 17 1 37 8 44 16 16 19 34 19 50 0 18 -22 43 -18 70 10 16 17 34 25 56 25
18 0 36 5 39 10 3 6 15 10 26 10 10 0 19 5 19 10 0 6 17 10 39 10 22 0 44 6
51 15 16 19 68 45 91 45 10 0 21 5 24 10 3 5 32 10 64 10 40 0 63 5 71 15 8
10 31 15 66 15 40 0 54 4 54 14 0 20 56 46 97 46 18 0 33 5 33 10 0 6 26 10
59 10 33 0 63 5 66 10 3 6 24 10 46 10 21 0 39 5 39 10 0 6 28 10 65 10 37 0
65 -4 65 -10 0 -5 9 -10 19 -10 11 0 23 -4 26 -10 3 -5 37 -10 76 -10 62 0 69
-2 69 -19 0 -11 5 -23 10 -26 6 -3 10 -30 10 -59 0 -40 5 -57 20 -71 11 -10
20 -26 20 -37 0 -10 5 -18 10 -18 6 0 10 -9 10 -19 0 -11 11 -28 25 -39 14
-11 25 -27 25 -35 0 -9 5 -19 10 -22 6 -3 10 -26 10 -50 0 -24 5 -47 10 -50 6
-3 10 -19 10 -36 0 -16 5 -29 10 -29 6 0 10 -13 10 -30 0 -16 5 -30 10 -30 6
0 10 -13 10 -28 0 -16 9 -37 20 -47 11 -10 20 -28 20 -40 0 -12 11 -32 25 -45
24 -22 25 -29 25 -130 0 -94 2 -109 20 -125 15 -13 20 -31 20 -67 0 -26 5 -48
10 -48 6 0 10 -13 10 -29 0 -17 5 -33 10 -36 6 -3 10 -28 10 -56 0 -27 5 -49
10 -49 6 0 10 -18 10 -39 0 -22 5 -43 10 -46 6 -3 10 -17 10 -30 0 -13 5 -27
10 -30 6 -3 10 -37 10 -75 0 -38 5 -72 10 -75 6 -3 10 -21 10 -39 0 -19 7 -39
15 -46 19 -15 21 -130 3 -148 -9 -9 -9 -15 0 -24 7 -7 12 -22 12 -34 0 -13 5
-26 10 -29 6 -3 10 -33 10 -66 0 -33 4 -59 10 -59 6 0 10 -18 10 -39 0 -22 5
-43 10 -46 6 -4 10 -53 10 -115 0 -62 4 -111 10 -115 6 -3 10 -42 10 -85 0
-43 5 -82 10 -85 6 -3 10 -46 10 -94 0 -95 13 -121 58 -121 11 0 24 -4 27 -10
8 -13 85 -13 85 0 0 6 22 10 48 10 50 0 77 19 110 77 14 27 16 109 2 118 -5 3
-10 26 -10 50 0 24 -4 47 -10 50 -5 3 -10 37 -10 75 0 38 -4 72 -10 75 -5 3
-10 17 -10 30 0 13 -4 27 -10 30 -5 3 -10 32 -10 64 0 40 -5 63 -15 71 -8 7
-15 23 -15 36 0 12 -4 26 -10 29 -6 4 -10 68 -10 161 0 96 -4 154 -10 154 -5
0 -10 8 -10 18 0 10 -9 24 -20 32 -17 12 -20 26 -20 87 0 42 -4 73 -10 73 -5
0 -10 9 -10 20 0 11 -4 20 -10 20 -5 0 -10 11 -10 25 0 13 -9 40 -20 60 -11
20 -20 48 -20 64 0 16 -7 34 -15 41 -10 9 -15 32 -15 75 0 51 -6 74 -30 120
-23 43 -30 70 -30 111 0 30 -4 54 -10 54 -5 0 -10 9 -10 19 0 11 -4 23 -10 26
-5 3 -10 33 -10 66 0 33 -4 59 -10 59 -5 0 -10 8 -10 18 0 9 -11 26 -25 36
-21 15 -25 27 -25 67 0 26 -4 51 -10 54 -5 3 -10 21 -10 39 0 20 -8 40 -20 51
-11 10 -20 31 -20 47 0 15 -4 28 -10 28 -5 0 -10 22 -10 49 0 28 -4 53 -10 56
-5 3 -10 21 -10 40 0 19 -4 37 -10 40 -5 3 -10 18 -10 33 0 16 -8 34 -20 42
-14 10 -20 26 -20 51 0 20 -7 42 -15 49 -8 7 -15 21 -15 31 0 11 -5 27 -11 37
-9 15 -8 23 7 40 15 18 29 22 74 22 54 0 58 2 105 50 30 30 58 50 72 50 12 0
25 5 28 10 3 6 19 10 35 10 16 0 32 -4 35 -10 10 -17 62 -11 100 10 24 13 54
20 91 20 47 0 57 3 61 20 5 19 53 50 79 50 6 0 38 14 69 30 31 17 68 30 81 30
13 0 24 5 24 10 0 6 24 10 53 10 62 0 100 16 142 60 16 16 39 30 51 30 13 0
26 5 29 10 3 6 22 10 40 10 19 0 50 9 70 20 20 11 49 20 65 20 16 0 32 5 35
10 3 6 18 10 32 10 15 0 36 12 53 30 26 27 34 30 93 30 45 0 68 4 77 15 8 9
30 15 59 15 35 0 50 5 61 20 12 16 26 20 72 20 31 0 60 4 63 10 3 6 19 10 36
10 16 0 29 5 29 10 0 6 26 10 59 10 33 0 63 5 66 10 3 6 33 10 66 10 33 0 59
4 59 10 0 6 8 10 18 10 11 0 27 9 37 20 10 11 24 20 30 20 7 0 18 7 25 15 7 8
27 15 46 15 18 0 36 5 39 10 3 6 33 10 66 10 33 0 59 4 59 10 0 6 9 10 19 10
11 0 23 5 26 10 3 6 16 10 29 10 12 0 34 13 49 28 21 22 27 38 27 75 0 26 5
47 10 47 16 0 11 26 -8 43 -10 10 -33 17 -50 17 -17 0 -34 4 -37 10 -3 6 -15
10 -26 10 -10 0 -19 -4 -19 -10 0 -6 -42 -10 -105 -10 -63 0 -105 -4 -105 -10
0 -6 -26 -10 -59 -10 -33 0 -63 -4 -66 -10 -3 -5 -15 -10 -26 -10 -10 0 -19
-4 -19 -10 0 -5 -9 -10 -20 -10 -11 0 -20 -4 -20 -10 0 -5 -18 -10 -39 -10
-22 0 -42 -4 -46 -9 -8 -14 -65 -41 -86 -41 -10 0 -21 -5 -24 -10 -3 -6 -24
-10 -46 -10 -21 0 -39 -4 -39 -10 0 -5 -13 -10 -29 -10 -17 0 -33 -4 -36 -10
-3 -5 -16 -10 -29 -10 -13 0 -31 -9 -41 -20 -10 -11 -28 -20 -41 -20 -13 0
-26 -4 -29 -10 -3 -5 -24 -10 -46 -10 -21 0 -39 -4 -39 -10 0 -5 -22 -10 -49
-10 -31 0 -53 -5 -61 -15 -7 -8 -27 -15 -46 -15 -18 0 -36 -4 -39 -10 -3 -5
-21 -10 -39 -10 -32 0 -90 -23 -101 -40 -8 -13 -66 -40 -86 -40 -10 0 -21 -4
-24 -10 -3 -5 -19 -10 -36 -10 -16 0 -29 -4 -29 -10 0 -5 -11 -10 -23 -10 -26
0 -83 -25 -92 -41 -4 -5 -24 -9 -45 -9 -22 0 -55 -9 -75 -20 -20 -11 -47 -20
-60 -20 -14 0 -25 -4 -25 -10 0 -5 -18 -10 -39 -10 -22 0 -43 -4 -46 -10 -3
-5 -17 -10 -30 -10 -13 0 -27 -4 -30 -10 -3 -5 -17 -10 -30 -10 -13 0 -27 -4
-30 -10 -3 -5 -24 -10 -45 -10 -21 0 -42 -4 -45 -10 -3 -5 -14 -10 -24 -10
-21 0 -78 -27 -86 -41 -4 -5 -21 -9 -40 -9 -19 0 -37 -4 -40 -10 -3 -6 -28
-10 -55 -10 -27 0 -52 -4 -55 -10 -4 -6 -56 -10 -124 -10 -115 0 -118 0 -142
28 -30 34 -49 67 -49 87 0 8 -4 15 -10 15 -5 0 -10 8 -10 18 0 10 -9 24 -20
32 -12 8 -20 26 -20 42 0 15 -4 30 -10 33 -5 3 -10 17 -10 30 0 13 -4 27 -10
30 -5 3 -10 16 -10 29 0 12 -11 33 -25 46 -18 17 -25 34 -25 62 0 21 -4 38
-10 38 -5 0 -10 9 -10 20 0 13 -7 20 -20 20 -11 0 -20 6 -20 13 0 28 -31 74
-90 132 -33 33 -60 64 -60 70 0 6 -13 24 -30 40 -16 16 -30 33 -30 39 0 19
-54 66 -76 66 -13 0 -26 5 -29 10 -3 6 -19 10 -36 10 -16 0 -29 5 -29 10 0 6
-48 10 -124 10 -73 0 -127 -4 -131 -10 -3 -5 -17 -10 -30 -10 -13 0 -27 -4
-30 -10 -3 -5 -13 -10 -22 -10 -8 0 -35 -21 -59 -47 -33 -34 -44 -54 -44 -78
0 -22 -9 -40 -31 -61 -17 -16 -39 -47 -49 -69 -10 -22 -35 -56 -54 -74 -20
-19 -36 -40 -36 -46 0 -7 -9 -20 -20 -30 -29 -26 -50 -73 -50 -110 0 -19 -8
-39 -20 -50 -11 -10 -20 -23 -20 -30 0 -6 -18 -29 -40 -50 -22 -22 -40 -49
-40 -61 0 -12 -7 -27 -15 -34 -10 -8 -15 -31 -15 -71 0 -48 -4 -61 -20 -71
-11 -7 -20 -20 -20 -29 0 -9 -7 -22 -15 -29 -8 -7 -33 -49 -55 -95 -22 -46
-47 -88 -55 -95 -23 -19 -45 -70 -45 -105 0 -45 -53 -95 -102 -95 -31 0 -43
-9 -97 -65 -43 -46 -68 -65 -85 -65 -14 0 -27 4 -31 10 -3 5 -20 1 -41 -10
-19 -11 -41 -20 -49 -20 -8 0 -15 -4 -15 -10 0 -5 -16 -10 -35 -10 -19 0 -50
-9 -70 -20 -20 -11 -44 -20 -55 -20 -10 0 -21 -4 -25 -9 -13 -21 -71 -41 -121
-41 -29 0 -56 -4 -59 -10 -3 -5 -17 -10 -30 -10 -13 0 -27 -5 -30 -10 -3 -6
-21 -10 -39 -10 -20 0 -40 -8 -51 -20 -12 -13 -31 -20 -56 -20 -21 0 -41 -4
-44 -10 -3 -5 -30 -10 -60 -10 -30 0 -57 -5 -60 -10 -3 -6 -19 -10 -36 -10
-16 0 -29 -4 -29 -10 0 -5 -11 -10 -25 -10 -14 0 -25 5 -25 12 0 9 -3 9 -12 0
-7 -7 -22 -12 -34 -12 -12 0 -27 -7 -34 -15 -7 -8 -23 -15 -36 -15 -12 0 -26
-4 -29 -10 -3 -6 -34 -10 -69 -10 -68 0 -108 -15 -146 -55 -13 -14 -34 -25
-46 -25 -13 0 -26 -5 -29 -10 -3 -5 -15 -10 -26 -10 -10 0 -19 -4 -19 -10 0
-5 -9 -10 -20 -10 -11 0 -20 -4 -20 -10 0 -5 -22 -10 -49 -10 -31 0 -53 -5
-61 -15 -7 -8 -21 -15 -31 -15 -10 0 -34 -9 -54 -20 -20 -11 -47 -20 -60 -20
-14 0 -25 -4 -25 -10 0 -5 -20 -10 -43 -10 -45 0 -96 -20 -117 -45 -7 -9 -29
-15 -51 -15 -22 0 -39 -4 -39 -10 0 -5 -8 -10 -19 -10 -10 0 -24 -7 -31 -15
-8 -10 -31 -15 -66 -15 -29 0 -56 -4 -59 -10 -3 -5 -28 -10 -56 -10 -27 0 -49
-4 -49 -10 0 -5 -7 -10 -15 -10 -8 0 -30 -9 -50 -20 -20 -11 -44 -20 -55 -20
-10 0 -22 -4 -25 -10 -9 -14 -119 -12 -133 2 -18 18 -15 53 8 93 11 20 20 40
20 46 0 6 14 24 30 39 17 15 30 34 30 41 0 7 25 37 55 66 30 29 55 57 55 60 0
19 47 103 57 103 7 0 21 19 32 43 20 44 64 92 102 111 27 13 57 62 58 93 1 12
6 25 11 28 6 3 10 17 10 31 0 26 49 84 71 84 16 0 79 65 79 80 0 14 116 130
130 130 15 0 40 25 40 40 0 15 25 40 40 40 16 0 40 26 40 43 0 8 7 17 15 21 8
3 15 12 15 21 0 8 6 25 12 38 20 34 181 197 196 197 17 0 42 25 42 42 0 8 23
36 50 63 28 27 50 54 50 60 0 6 20 31 45 55 25 24 45 49 45 56 0 6 9 19 20 29
11 10 20 23 20 30 0 18 34 45 57 45 20 0 53 29 53 47 0 5 12 20 26 34 14 13
34 42 44 64 10 22 39 60 65 85 42 41 75 90 75 112 0 5 43 50 95 102 52 51 95
99 95 105 0 7 18 30 40 51 22 21 40 45 40 52 0 17 71 88 88 88 16 0 232 217
232 233 0 7 20 33 45 57 25 24 45 50 45 57 0 7 7 13 15 13 23 0 65 46 66 72 1
32 31 81 58 94 34 17 71 56 71 74 0 27 26 73 60 105 30 28 60 78 60 98 0 5 11
18 25 29 14 11 25 28 25 39 0 10 5 19 10 19 6 0 10 8 10 18 0 22 19 42 38 42
16 0 82 68 82 85 0 6 14 24 31 41 17 16 44 57 60 92 17 34 36 62 43 62 14 0
56 41 56 56 0 5 20 30 45 54 27 26 45 53 45 66 0 13 5 26 10 29 6 3 10 24 10
46 0 21 5 39 10 39 6 0 10 22 10 49 0 28 5 53 10 56 6 3 10 19 10 35 0 16 -4
32 -10 35 -6 3 -10 48 -10 100 0 76 -4 101 -20 130 -11 20 -20 44 -20 55 0 10
-4 22 -10 25 -5 3 -10 15 -10 26 0 12 -7 19 -18 19 -10 0 -40 23 -67 51 -28
28 -60 55 -73 60 -12 5 -25 17 -29 26 -11 31 -35 53 -59 53 -13 0 -26 5 -29
10 -3 6 -37 10 -75 10 -38 0 -72 5 -75 10 -3 6 -17 10 -30 10 -13 0 -27 5 -30
10 -3 6 -40 10 -81 10 -43 0 -74 -4 -74 -10z m1410 -2905 c13 -14 28 -25 34
-25 24 0 66 -54 66 -85 0 -23 10 -41 40 -70 22 -21 40 -44 40 -51 0 -6 7 -17
15 -24 17 -14 45 -67 45 -87 0 -7 5 -13 10 -13 6 0 10 -9 10 -20 0 -11 7 -23
15 -26 8 -4 15 -12 15 -20 0 -7 9 -29 20 -49 11 -20 20 -44 20 -55 0 -10 5
-22 10 -25 6 -3 10 -33 10 -66 0 -33 -4 -59 -10 -59 -5 0 -10 -7 -10 -16 0
-19 -24 -44 -43 -44 -8 0 -28 -16 -44 -35 -17 -19 -35 -35 -41 -35 -6 0 -27
-9 -47 -20 -20 -11 -49 -20 -65 -20 -16 0 -32 -4 -35 -10 -3 -5 -19 -10 -36
-10 -16 0 -29 -4 -29 -10 0 -6 -28 -10 -63 -10 -48 0 -76 -6 -115 -26 -29 -14
-54 -30 -58 -35 -3 -5 -23 -9 -44 -9 -21 0 -42 -4 -45 -10 -3 -5 -21 -10 -40
-10 -19 0 -37 -4 -40 -10 -3 -5 -21 -10 -40 -10 -19 0 -37 -4 -40 -10 -3 -5
-19 -10 -36 -10 -16 0 -29 -4 -29 -10 0 -6 -26 -10 -59 -10 -33 0 -63 -4 -66
-10 -3 -5 -19 -10 -36 -10 -16 0 -29 -4 -29 -10 0 -13 -77 -13 -85 1 -4 5 0
18 9 28 9 10 16 32 16 49 0 17 5 34 10 37 6 3 10 15 10 26 0 10 5 19 10 19 6
0 10 9 10 20 0 11 5 20 10 20 6 0 10 24 10 53 0 54 34 141 65 167 8 7 15 25
15 40 0 19 9 36 25 48 18 14 25 29 25 54 0 22 7 42 20 53 11 10 20 23 20 30 0
6 16 27 35 45 47 45 65 83 65 135 0 53 41 95 93 95 23 0 41 8 57 25 27 29 75
55 100 55 18 0 43 25 53 53 4 12 17 17 41 17 19 0 38 5 41 10 12 20 71 11 95
-15z m-925 -1065 c3 -5 1 -10 -4 -10 -6 0 -11 5 -11 10 0 6 2 10 4 10 3 0 8
-4 11 -10z m2165 -1476 c0 -8 -4 -14 -10 -14 -5 0 -10 9 -10 21 0 11 5 17 10
14 6 -3 10 -13 10 -21z"/>
<path d="M7739 7243 c-37 -42 -49 -69 -49 -108 0 -21 -5 -35 -12 -35 -9 0 -9
-3 0 -12 7 -7 12 -29 12 -50 0 -33 3 -38 23 -38 33 0 87 -29 87 -46 0 -8 10
-18 23 -23 13 -5 29 -16 36 -25 7 -9 20 -16 27 -16 8 0 14 -6 14 -13 0 -7 14
-26 30 -42 40 -38 60 -80 60 -122 0 -23 5 -33 16 -33 19 0 44 -24 44 -42 0 -8
16 -29 35 -48 25 -24 35 -43 35 -65 0 -22 9 -40 30 -60 17 -16 30 -34 30 -40
0 -6 26 -36 58 -68 l58 -57 65 0 c37 0 70 5 77 12 15 15 16 174 2 183 -5 3
-10 30 -10 60 0 30 -4 57 -10 60 -5 3 -10 15 -10 26 0 10 -4 19 -10 19 -5 0
-10 22 -10 48 0 36 -5 54 -20 67 -11 10 -20 28 -20 40 0 13 -7 28 -15 35 -9 7
-25 33 -35 56 -11 24 -24 46 -30 49 -5 3 -10 15 -10 26 0 10 -7 19 -15 19 -8
0 -42 27 -76 60 -33 33 -69 60 -78 60 -25 0 -74 26 -96 50 -10 11 -23 20 -30
20 -6 0 -22 11 -35 25 -34 36 -77 55 -125 55 -32 0 -46 -6 -66 -27z"/>
</g>
</svg>
